<mxfile host="app.diagrams.net" modified="2023-05-05T09:16:59.719Z" agent="Mozilla/5.0 (X11; Linux x86_64) AppleWebKit/537.36 (KHTML, like Gecko) Chrome/112.0.0.0 Safari/537.36" version="21.2.7" etag="lI6HeVhGOm_vUca181WX" type="github">
  <diagram name="Page-1" id="uUz73S1WDh-L8p0d4PjS">
    <mxGraphModel>
      <root>
        <mxCell id="0" />
        <mxCell id="1" parent="0" />
      </root>
    </mxGraphModel>
  </diagram>
</mxfile>
